<svg id="Слой_1" xmlns="http://www.w3.org/2000/svg" viewBox="569 -137.3 1206.3 351.3"><style>.st0{fill:#b42b11}.st1{fill:#ead28b}.st2{fill:#f5f5a5}</style><g id="Слой_1_1_"><path class="st0" d="M1717.1 214H628.4c-32.7 0-59.4-26.8-59.4-59.5V-77.9c0-32.7 26.7-59.4 59.4-59.4H1717c32.7 0 59.4 26.7 59.4 59.4v232.4c.1 32.7-26.6 59.5-59.3 59.5z"/><path class="st1" d="M844.1 25.6h-16.6L773.1-34v59.6h-13.7V-92.1h13.7v57l53-57h15.7L789.7-35l54.4 60.6zm55.2 1.6c-5.7 0-11-1.1-15.7-3.2-4.7-2.1-8.7-5.4-12-9.8h-1c.6 5.2 1 10 1 14.6v36.3h-13.4V-62.6h10.9l1.9 12.1h.6c3.4-4.8 7.4-8.3 12-10.5 4.6-2.1 9.8-3.2 15.7-3.2 11.7 0 20.7 4 27.1 12 6.4 8 9.5 19.2 9.5 33.6 0 14.5-3.2 25.7-9.7 33.8-6.4 8-15.4 12-26.9 12zm-1.9-80.1c-9 0-15.5 2.5-19.6 7.5-4 5-6.1 12.9-6.2 23.8v3c0 12.4 2.1 21.3 6.2 26.6s10.8 8 19.9 8c7.6 0 13.6-3.1 17.9-9.3s6.5-14.7 6.5-25.5c0-11-2.2-19.4-6.5-25.3-4.3-5.9-10.4-8.8-18.2-8.8zm116.1 78.5l-2.7-12.6h-.6c-4.4 5.5-8.8 9.3-13.2 11.2-4.4 2-9.8 2.9-16.4 2.9-8.7 0-15.6-2.3-20.6-6.8s-7.4-10.9-7.4-19.2c0-17.8 14.2-27.1 42.7-28l15-.5v-5.5c0-6.9-1.5-12-4.5-15.3s-7.7-4.9-14.3-4.9c-7.4 0-15.7 2.3-24.9 6.8l-4.1-10.2c4.3-2.4 9.1-4.2 14.3-5.6 5.2-1.3 10.4-2 15.6-2 10.5 0 18.3 2.3 23.4 7s7.6 12.2 7.6 22.5v60.2h-9.9zm-30.2-9.4c8.3 0 14.8-2.3 19.6-6.8 4.7-4.6 7.1-10.9 7.1-19.2v-8l-13.4.6c-10.6.4-18.3 2-23 4.9-4.7 2.9-7 7.5-7 13.6 0 4.8 1.5 8.5 4.4 11 3 2.6 7.1 3.9 12.3 3.9zm102.9 11c-12.8 0-22.7-3.9-29.7-11.8S1046-3.6 1046-18c0-14.8 3.6-26.2 10.7-34.2 7.1-8 17.2-12.1 30.4-12.1 4.2 0 8.5.5 12.7 1.4s7.6 2 10 3.2l-4.1 11.4c-3-1.2-6.2-2.2-9.7-2.9-3.5-.8-6.6-1.2-9.3-1.2-17.9 0-26.9 11.4-26.9 34.3 0 10.8 2.2 19.2 6.6 24.9 4.4 5.8 10.9 8.7 19.4 8.7 7.4 0 14.9-1.6 22.6-4.7v11.8c-5.8 3-13.3 4.6-22.2 4.6zm56.6-89.8v36.9h49.4v-36.9h13.4v88.2h-13.4v-39.8h-49.4v39.8h-13.4v-88.2h13.4zm145.3 88.2l-2.7-12.6h-.6c-4.4 5.5-8.8 9.3-13.2 11.2-4.4 2-9.8 2.9-16.4 2.9-8.7 0-15.6-2.3-20.6-6.8s-7.4-10.9-7.4-19.2c0-17.8 14.2-27.1 42.7-28l15-.5v-5.5c0-6.9-1.5-12-4.5-15.3s-7.7-4.9-14.3-4.9c-7.4 0-15.7 2.3-24.9 6.8l-4.1-10.2c4.3-2.4 9.1-4.2 14.3-5.6 5.2-1.3 10.4-2 15.6-2 10.5 0 18.3 2.3 23.4 7 5.1 4.7 7.6 12.2 7.6 22.5v60.2h-9.9zm-30.2-9.4c8.3 0 14.8-2.3 19.6-6.8 4.7-4.6 7.1-10.9 7.1-19.2v-8l-13.4.6c-10.6.4-18.3 2-23 4.9s-7 7.5-7 13.6c0 4.8 1.5 8.5 4.4 11 3 2.6 7.1 3.9 12.3 3.9zm72.1 9.4h-15.6l25.4-37.3c-6.8-1.5-12-4.4-15.7-8.7-3.6-4.3-5.4-9.8-5.4-16.3 0-8 2.7-14.4 8.1-19 5.4-4.6 13-6.9 22.7-6.9h39.3v88.2h-13.4V-9.7h-22.3L1330 25.6zm1.6-62.2c0 10.2 7.4 15.3 22.2 15.3h21.5v-29.8h-24.2c-13 0-19.5 4.9-19.5 14.5zM831.8 157.6h-14.3V80.8h-28c-1.5 19.1-3.7 34.3-6.4 45.5-2.7 11.2-6.3 19.4-10.6 24.6-4.3 5.2-9.9 7.8-16.6 7.8-3.1 0-5.5-.3-7.3-1v-9.9c1.2.3 2.7.5 4.3.5 6.5 0 11.7-6.5 15.6-19.6 3.9-13 6.8-32.8 8.8-59.4h54.6v88.3h-.1zm110.5-44.2c0 14.4-3.8 25.6-11.5 33.7s-18.2 12.1-31.7 12.1c-8.3 0-15.7-1.9-22.2-5.6s-11.5-9-15-15.9-5.3-15-5.3-24.3c0-14.4 3.8-25.6 11.4-33.6 7.6-8 18.2-12 31.7-12 13.1 0 23.4 4.1 31.1 12.3 7.6 8.2 11.5 19.3 11.5 33.3zm-71.1 0c0 11.3 2.4 19.9 7.1 25.8 4.8 5.9 11.8 8.9 21 8.9s16.3-2.9 21.1-8.8c4.8-5.9 7.2-14.5 7.2-25.8 0-11.2-2.4-19.7-7.2-25.6-4.8-5.8-11.9-8.7-21.2-8.7s-16.2 2.9-20.9 8.6c-4.8 5.7-7.1 14.2-7.1 25.6zm165.4 32.7h41.4V69.6h14.1v76.5h13.4v41.8h-14.3v-30.3H967v-88h14.1v76.5h41.3V69.6h14.1l.1 76.5zm144.2 11.5L1178 145h-.7c-4.7 5.5-9.3 9.3-13.9 11.2-4.6 2-10.4 2.9-17.3 2.9-9.3 0-16.5-2.3-21.7-6.8-5.2-4.5-7.9-10.9-7.9-19.2 0-17.8 15.1-27.1 45.2-28l15.8-.5v-5.5c0-6.9-1.6-12-4.7-15.3s-8.2-5-15.1-5c-7.8 0-16.6 2.3-26.4 6.8l-4.3-10.2c4.6-2.4 9.6-4.2 15.1-5.6 5.5-1.3 11-2 16.5-2 11.1 0 19.4 2.3 24.7 7s8 12.2 8 22.5v60.2h-10.5v.1zm-32-9.4c8.8 0 15.7-2.3 20.7-6.8 5-4.6 7.5-10.9 7.5-19.2v-8l-14.1.6c-11.2.4-19.3 2-24.3 4.9s-7.4 7.5-7.4 13.6c0 4.8 1.5 8.5 4.6 11 3.1 2.6 7.5 3.9 13 3.9zm152.6 39.9h-13.7v-30.5h-65.2v30.5h-13.6v-42h7.3c7.6-9.8 13.6-21.2 17.9-34.4 4.3-13.1 6.6-27.3 6.7-42.3h47.2v76.7h13.4v42zm-27-42V79.9h-20.9c-.7 11.9-3.2 24-7.3 36.2-4.1 12.2-9.2 22.2-15.4 30h43.6zm59.7-40.3h28.8c23.8 0 35.7 8.3 35.7 24.9 0 8.7-3.1 15.3-9.3 20-6.2 4.6-15.3 6.9-27.3 6.9h-42V69.4h14.1v36.4zm0 11.5v29.1h27.2c7.5 0 13.2-1.2 17.2-3.7s6-6.2 6-11.2c0-4.9-1.8-8.5-5.5-10.7-3.7-2.3-9.7-3.4-18.1-3.4l-26.8-.1zm-605.9 36.4h-14.5V-1.2h-63.9v154.9h-14.4V-19.1h92.9l-.1 172.8z"/><path class="st2" d="M1585.1-93.6l27.3 103.1h92.9l-83.1 67.1 23 92.8-85.6-59.6-92.7 58.5 36-96.6-76.2-62.2h102.6z"/><path class="st2" d="M1527.8 64l-47.1-38.4h63.6l33-61.2 16.3 61.2h57.8l-51 41.1 14.1 57.3-51.7-36-56.2 32.4z"/><path class="st0" d="M1575.8-22.2l14 52.7h47.5l-42.5 34.3 11.8 47.5-43.8-30.5-45.9 25.1 16.9-44.6-39-31.8h52.5l28.5-52.7m3.1-26.9l-12 22.2-25.7 47.5h-74.6l21.8 17.8 33.5 27.3-14.4 37.9-11.2 30.4 26.4-18.8 40.2-21 38 26.5 21.8 15.2-6.4-25.8-10.2-41.3 37.5-30.3 22.1-17.8h-68.1l-12-45.3-6.7-24.5z"/><path class="st2" d="M1599.6-92.1h175.8v4h-175.8zm4.5 12.1h172.3v4h-172.3zm2.5 12.2h169.8v4h-169.8zm3 12.1h166.8v4h-166.8zm3 12.1h163.8v4h-163.8zm3 12.2h160.8v4h-160.8zm2.5 12.1h158.3v4h-158.3zm2.5 12.1h155.8v4h-155.8z"/></g></svg>